# xmcd CD database file
#
# Track frame offsets:
#	150
#	13712
#	23695
#	36800
#	48765
#	62355
#	72052
#	83365
#	97197
#	107607
#	116815
#	128652
#	138330
#	150515
#	162390
#	174217
#	186880
#	197860
#	207237
#	219072
#	229057
#	240530
#	254572
#	266630
#
# Disc length: 3727 seconds
#
# Revision: 2
# Processed by: cddbd v1.5.2PL0 Copyright (c) Steve Scherf et al.
# Submitted via: CDex 1.51
#
DISCID=3a0e8d18
DTITLE=Loretta Lynn - The Very Best Of Loretta Lynn
DYEAR=1997
DGENRE=Country
TTITLE0=Coal Miners Daughter
TTITLE1=Fist City
TTITLE2=Woman Of The World (Leave My Man Alone)
TTITLE3=After The Fire Is Gone (with Conway Twitty)
TTITLE4=Somebody Somewhere (Don't Know What He's Missin' Tonight)
TTITLE5=Trouble In Paradise
TTITLE6=Love Is The Foundation
TTITLE7=She's Got You
TTITLE8=You're Lookin' At Country
TTITLE9=Wine Women And Song
TTITLE10=Out Of My Head And Back In My Bed
TTITLE11=Don't Come Home A Drinkin' (With Lovin' On Your Mind)
TTITLE12=As Soon As I Hang Up The Phone (with Conway Twitty)
TTITLE13=One's On The Way
TTITLE14=Rated X
TTITLE15=Hey Loretta
TTITLE16=Lead Me On (with Conway Twitty)
TTITLE17=Your Squaw Is On The Warpath
TTITLE18=The Pill
TTITLE19=You Ain't Woman Enough
TTITLE20=Before I'm Over You
TTITLE21=Paper Roses
TTITLE22=Blue Kentucky Girl
TTITLE23=The Letter (with Conway Twitty)
EXTD=YEAR: 1997
EXTT0=
EXTT1=
EXTT2=
EXTT3=
EXTT4=
EXTT5=
EXTT6=
EXTT7=
EXTT8=
EXTT9=
EXTT10=
EXTT11=
EXTT12=
EXTT13=
EXTT14=
EXTT15=
EXTT16=
EXTT17=
EXTT18=
EXTT19=
EXTT20=
EXTT21=
EXTT22=
EXTT23=
PLAYORDER=
